<?xml version="1.0" encoding="UTF-8" standalone="no"?>
<!-- Generator: Adobe Illustrator 16.0.4, SVG Export Plug-In . SVG Version: 6.00 Build 0)  -->

<svg
   xmlns:dc="http://purl.org/dc/elements/1.1/"
   xmlns:cc="http://creativecommons.org/ns#"
   xmlns:rdf="http://www.w3.org/1999/02/22-rdf-syntax-ns#"
   xmlns:svg="http://www.w3.org/2000/svg"
   xmlns="http://www.w3.org/2000/svg"
   xmlns:sodipodi="http://sodipodi.sourceforge.net/DTD/sodipodi-0.dtd"
   xmlns:inkscape="http://www.inkscape.org/namespaces/inkscape"
   version="1.1"
   id="Capa_1"
   x="0px"
   y="0px"
   width="44.237px"
   height="44.237px"
   viewBox="0 0 44.237 44.237"
   style="enable-background:new 0 0 44.237 44.237;"
   xml:space="preserve"
   inkscape:version="0.48.4 r9939"
   sodipodi:docname="close33.svg"><metadata
   id="metadata53"><rdf:RDF><cc:Work
       rdf:about=""><dc:format>image/svg+xml</dc:format><dc:type
         rdf:resource="http://purl.org/dc/dcmitype/StillImage" /><dc:title></dc:title></cc:Work></rdf:RDF></metadata><defs
   id="defs51" /><sodipodi:namedview
   pagecolor="#ffffff"
   bordercolor="#666666"
   borderopacity="1"
   objecttolerance="10"
   gridtolerance="10"
   guidetolerance="10"
   inkscape:pageopacity="0"
   inkscape:pageshadow="2"
   inkscape:window-width="640"
   inkscape:window-height="480"
   id="namedview49"
   showgrid="false"
   inkscape:zoom="5.3349007"
   inkscape:cx="22.1185"
   inkscape:cy="22.1185"
   inkscape:window-x="2264"
   inkscape:window-y="355"
   inkscape:window-maximized="0"
   inkscape:current-layer="Capa_1" />
<g
   id="g3"
   style="fill:#f9f9f9">
	<g
   id="g5"
   style="fill:#f9f9f9">
		<line
   x1="15.533"
   y1="28.704"
   x2="28.704"
   y2="15.533"
   id="line7"
   style="fill:#f9f9f9" />
		<path
   d="M15.533,29.454c-0.192,0-0.384-0.073-0.53-0.22c-0.293-0.293-0.293-0.768,0-1.061l13.171-13.171    c0.293-0.293,0.768-0.293,1.061,0s0.293,0.768,0,1.061L16.063,29.234C15.917,29.381,15.725,29.454,15.533,29.454z"
   id="path9"
   style="fill:#f9f9f9" />
	</g>
	<g
   id="g11"
   style="fill:#f9f9f9">
		<line
   x1="15.533"
   y1="15.533"
   x2="28.704"
   y2="28.704"
   id="line13"
   style="fill:#f9f9f9" />
		<path
   d="M28.704,29.454c-0.192,0-0.384-0.073-0.53-0.22L15.002,16.063c-0.293-0.293-0.293-0.768,0-1.061s0.768-0.293,1.061,0    l13.171,13.171c0.293,0.293,0.293,0.768,0,1.061C29.088,29.381,28.896,29.454,28.704,29.454z"
   id="path15"
   style="fill:#f9f9f9" />
	</g>
	<path
   d="M22.119,44.237C9.922,44.237,0,34.315,0,22.119S9.922,0,22.119,0s22.119,9.922,22.119,22.119S34.315,44.237,22.119,44.237z    M22.119,1.5C10.75,1.5,1.5,10.75,1.5,22.119s9.25,20.619,20.619,20.619s20.619-9.25,20.619-20.619S33.488,1.5,22.119,1.5z"
   id="path17"
   style="fill:#f9f9f9" />
</g>
<g
   id="g19">
</g>
<g
   id="g21">
</g>
<g
   id="g23">
</g>
<g
   id="g25">
</g>
<g
   id="g27">
</g>
<g
   id="g29">
</g>
<g
   id="g31">
</g>
<g
   id="g33">
</g>
<g
   id="g35">
</g>
<g
   id="g37">
</g>
<g
   id="g39">
</g>
<g
   id="g41">
</g>
<g
   id="g43">
</g>
<g
   id="g45">
</g>
<g
   id="g47">
</g>
</svg>