<?xml version="1.0" encoding="UTF-8" standalone="no"?>
<!-- Generator: Adobe Illustrator 18.0.0, SVG Export Plug-In . SVG Version: 6.00 Build 0)  -->

<svg
   xmlns:dc="http://purl.org/dc/elements/1.1/"
   xmlns:cc="http://creativecommons.org/ns#"
   xmlns:rdf="http://www.w3.org/1999/02/22-rdf-syntax-ns#"
   xmlns:svg="http://www.w3.org/2000/svg"
   xmlns="http://www.w3.org/2000/svg"
   xmlns:sodipodi="http://sodipodi.sourceforge.net/DTD/sodipodi-0.dtd"
   xmlns:inkscape="http://www.inkscape.org/namespaces/inkscape"
   version="1.1"
   id="Capa_1"
   x="0px"
   y="0px"
   viewBox="0 0 26 32"
   style="enable-background:new 0 0 26 32;"
   xml:space="preserve"
   inkscape:version="0.48.4 r9939"
   width="100%"
   height="100%"
   sodipodi:docname="recycling10.svg"><metadata
   id="metadata42"><rdf:RDF><cc:Work
       rdf:about=""><dc:format>image/svg+xml</dc:format><dc:type
         rdf:resource="http://purl.org/dc/dcmitype/StillImage" /><dc:title></dc:title></cc:Work></rdf:RDF></metadata><defs
   id="defs40" /><sodipodi:namedview
   pagecolor="#ffffff"
   bordercolor="#666666"
   borderopacity="1"
   objecttolerance="10"
   gridtolerance="10"
   guidetolerance="10"
   inkscape:pageopacity="0"
   inkscape:pageshadow="2"
   inkscape:window-width="640"
   inkscape:window-height="480"
   id="namedview38"
   showgrid="false"
   inkscape:zoom="7.375"
   inkscape:cx="13"
   inkscape:cy="16"
   inkscape:window-x="931"
   inkscape:window-y="411"
   inkscape:window-maximized="0"
   inkscape:current-layer="Capa_1" />
<g
   id="_x34__19_"
   style="fill:#f9f9f9">
	<g
   id="g4"
   style="fill:#f9f9f9">
		<path
   style="fill-rule:evenodd;clip-rule:evenodd;fill:#f9f9f9"
   d="M18,28c0.552,0,1-0.448,1-1V15c0-0.552-0.448-1-1-1c-0.552,0-1,0.448-1,1    v12C17,27.552,17.448,28,18,28z M24,4h-6V2c0-1.105-0.895-2-2-2h-6C8.895,0,8,0.895,8,2v2H2C0.895,4,0,4.895,0,6v2    c0,1.104,0.895,2,2,2v18c0,2.209,1.791,4,4,4h14c2.209,0,4-1.791,4-4V10c1.105,0,2-0.896,2-2V6C26,4.895,25.105,4,24,4z M10,3    c0-0.552,0.448-1,1-1h4c0.552,0,1,0.448,1,1v1c-0.969,0-6,0-6,0V3z M22,28c0,1.104-0.895,2-2,2H6c-1.105,0-2-0.896-2-2V10h18V28z     M23,8H3C2.448,8,2,7.552,2,7c0-0.552,0.448-1,1-1h20c0.552,0,1,0.448,1,1C24,7.552,23.552,8,23,8z M8,28c0.552,0,1-0.448,1-1V15    c0-0.552-0.448-1-1-1c-0.552,0-1,0.448-1,1v12C7,27.552,7.448,28,8,28z M13,28c0.552,0,1-0.448,1-1V15c0-0.552-0.448-1-1-1    c-0.552,0-1,0.448-1,1v12C12,27.552,12.448,28,13,28z"
   id="path6" />
	</g>
</g>
<g
   id="g8">
</g>
<g
   id="g10">
</g>
<g
   id="g12">
</g>
<g
   id="g14">
</g>
<g
   id="g16">
</g>
<g
   id="g18">
</g>
<g
   id="g20">
</g>
<g
   id="g22">
</g>
<g
   id="g24">
</g>
<g
   id="g26">
</g>
<g
   id="g28">
</g>
<g
   id="g30">
</g>
<g
   id="g32">
</g>
<g
   id="g34">
</g>
<g
   id="g36">
</g>
</svg>